.
 
http://www.scenetime.com    -  Hottest private tracker on the net. !!!

New release on http://www.scenetime.com

        Seed back for speed


...................................NFO:.................................................ooooo oooo   oooo oooooooo8 oooooooooo  o88   oooooooooo       o      ooooo       
 888   8888o  88 888         888    888 oooo   888    888     888      888        
 888   88 888o88  888oooooo  888oooo88   888   888oooo88     8  88     888        
 888   88   8888         888 888         888   888  88o     8oooo88    888      o 
o888o o88o    88 o88oooo888 o888o       o888o o888o  88o8 o88o  o888o o888ooooo88 

 
TITLE: 

Happy Feet 2 2011 DVDSCR AC3 XViD - INSPiRAL

IMDB: 
 
http://www.imdb.com/title/tt1823051/


SOURCES:

VIDEO - Happy.Feet.Two.2011.NTSC.DVDScr-PTP THANKS
AUDIO - Happy.Feet.Two.2011.NTSC.DVDScr-PTP THANKS
SUBS  - None Add

STATS:

Video
ID                               : 0
Format                           : MPEG-4 Visual
Format profile                   : Advanced Simple@L5
Format settings, BVOP            : 2
Format settings, QPel            : No
Format settings, GMC             : No warppoints
Format settings, Matrix          : Default (MPEG)
Muxing mode                      : Packed bitstream
Codec ID                         : XVID
Codec ID/Hint                    : XviD
Duration                         : 1h 40mn
Bit rate                         : 1 509 Kbps
Width                            : 720 pixels
Height                           : 304 pixels
Display aspect ratio             : 2.35:1
Frame rate                       : 23.976 fps
Color space                      : YUV
Chroma subsampling               : 4:2:0
Bit depth                        : 8 bits
Scan type                        : Progressive
Compression mode                 : Lossy
Bits/(Pixel*Frame)               : 0.288
Stream size                      : 1.06 GiB (77%)
Writing library                  : XviD 64

Audio
ID                               : 1
Format                           : AC-3
Format/Info                      : Audio Coding 3
Mode extension                   : CM (complete main)
Codec ID                         : 2000
Duration                         : 1h 40mn
Bit rate mode                    : Constant
Bit rate                         : 448 Kbps
Channel(s)                       : 6 channels
Channel positions                : Front: L C R, Side: L R, LFE
Sampling rate                    : 48.0 KHz
Bit depth                        : 16 bits
Compression mode                 : Lossy
Stream size                      : 322 MiB (23%)
Alignment                        : Aligned on interleaves
Interleave, duration             : 42 ms (1.00 video frame)
Interleave, preload duration     : 512 ms




NOTES:

Right,late to the party again ( need a faster pc or server lol ) but hey ho,we started so we'll finish.
Just took the dvdr and made a script to crop,resize,video noise remover.sharpen and then dropped in vdub....from there 
a slight tweak in the brightness,contrast and chroma.
Audio was just stripped and remuxed :)
Video does contain 2lines of text a few times during the film,but doesn't spoil it in anyway IMHO.


SCREENS:

[IMG]http://i.imgur.com/Tw7ke.png[/IMG]
[IMG]http://i.imgur.com/WvMDh.png[/IMG]
[IMG]http://i.imgur.com/fgSUH.png[/IMG]
[IMG]http://i.imgur.com/SXi5R.png[/IMG]


GREETZ: 

Past,Present and Future